<svg width="29" height="29" viewBox="0 0 29 29" fill="none" xmlns="http://www.w3.org/2000/svg">
<rect x="0.375" y="0.51416" width="28" height="28" rx="14" fill="#444444" fill-opacity="0.1"/>
<g clip-path="url(#clip0_2066_3931)">
<path d="M17.2917 12.1808H11.4584V11.5975C11.4582 10.9508 11.673 10.3224 12.0689 9.8111C12.4648 9.29977 13.0194 8.93451 13.6455 8.77276C14.2716 8.611 14.9338 8.66191 15.5278 8.9175C16.1218 9.17308 16.6141 9.61883 16.9272 10.1847C16.9644 10.2517 17.0144 10.3107 17.0744 10.3583C17.1344 10.406 17.2032 10.4414 17.2768 10.4624C17.3505 10.4835 17.4276 10.4899 17.5037 10.4811C17.5798 10.4724 17.6535 10.4488 17.7205 10.4116C17.7875 10.3744 17.8465 10.3244 17.8942 10.2644C17.9418 10.2044 17.9772 10.1356 17.9983 10.0619C18.0193 9.98826 18.0257 9.91116 18.017 9.83504C18.0082 9.75891 17.9846 9.68525 17.9474 9.61826C17.5089 8.82628 16.8197 8.20247 15.988 7.84488C15.1564 7.48729 14.2295 7.41621 13.353 7.6428C12.4766 7.8694 11.7002 8.38082 11.1461 9.09668C10.592 9.81254 10.2914 10.6922 10.2917 11.5975V12.4282C9.77221 12.6549 9.33 13.0282 9.01921 13.5022C8.70841 13.9763 8.54249 14.5307 8.54175 15.0975V18.5975C8.54267 19.3708 8.85026 20.1121 9.39704 20.6589C9.94382 21.2057 10.6852 21.5133 11.4584 21.5142H17.2917C18.065 21.5133 18.8063 21.2057 19.3531 20.6589C19.8999 20.1121 20.2075 19.3708 20.2084 18.5975V15.0975C20.2075 14.3243 19.8999 13.5829 19.3531 13.0361C18.8063 12.4894 18.065 12.1818 17.2917 12.1808ZM19.0417 18.5975C19.0417 19.0616 18.8574 19.5068 18.5292 19.835C18.201 20.1631 17.7559 20.3475 17.2917 20.3475H11.4584C10.9943 20.3475 10.5492 20.1631 10.221 19.835C9.89279 19.5068 9.70841 19.0616 9.70841 18.5975V15.0975C9.70841 14.6334 9.89279 14.1883 10.221 13.8601C10.5492 13.5319 10.9943 13.3475 11.4584 13.3475H17.2917C17.7559 13.3475 18.201 13.5319 18.5292 13.8601C18.8574 14.1883 19.0417 14.6334 19.0417 15.0975V18.5975Z" fill="#444444" fill-opacity="0.7"/>
<path d="M14.3751 15.6809C14.2204 15.6809 14.072 15.7424 13.9626 15.8518C13.8532 15.9612 13.7917 16.1095 13.7917 16.2642V17.4309C13.7917 17.5856 13.8532 17.734 13.9626 17.8434C14.072 17.9528 14.2204 18.0142 14.3751 18.0142C14.5298 18.0142 14.6782 17.9528 14.7876 17.8434C14.897 17.734 14.9584 17.5856 14.9584 17.4309V16.2642C14.9584 16.1095 14.897 15.9612 14.7876 15.8518C14.6782 15.7424 14.5298 15.6809 14.3751 15.6809Z" fill="#444444" fill-opacity="0.7"/>
</g>
<defs>
<clipPath id="clip0_2066_3931">
<rect width="14" height="14" fill="white" transform="translate(7.375 7.51416)"/>
</clipPath>
</defs>
</svg>
