<svg width="29" height="29" viewBox="0 0 29 29" fill="none" xmlns="http://www.w3.org/2000/svg">
<rect x="0.375" y="0.234863" width="28" height="28" rx="14" fill="#3E9ADB"/>
<g clip-path="url(#clip0_3227_4009)">
<g clip-path="url(#clip1_3227_4009)">
<path d="M20.9864 14.3092C20.975 14.252 20.9636 14.1949 20.9521 14.1377C20.9179 14.0006 20.8721 13.8635 20.8264 13.7263C20.8036 13.6692 20.7921 13.6235 20.7693 13.5663C20.6893 13.3949 20.6093 13.2235 20.5064 13.0749C20.5064 13.0749 20.5064 13.0749 20.5064 13.0635C20.3807 12.8806 20.2436 12.6977 20.0836 12.5377C20.0379 12.492 19.9807 12.4577 19.935 12.412C19.8893 12.3663 19.8321 12.332 19.7864 12.2863C19.5693 12.1149 19.3407 11.9663 19.1007 11.8635C19.0664 11.8635 19.055 11.852 19.0436 11.8406V10.892C19.0436 10.1035 18.8378 9.32631 18.4607 8.6406V8.62917C18.3921 8.52631 18.3236 8.43489 18.255 8.33203C18.1864 8.2406 18.1407 8.13774 18.0607 8.03489C18.0607 8.03489 18.0493 8.02346 18.0493 8.01203C17.9579 7.90917 17.8664 7.81774 17.775 7.71489C17.6836 7.63489 17.615 7.53203 17.5236 7.45203C17.4321 7.37203 17.3178 7.29203 17.215 7.21203C17.1121 7.13203 17.0207 7.05203 16.9179 6.98346C16.815 6.91489 16.7007 6.86917 16.5978 6.81203C16.4836 6.74346 16.3693 6.67489 16.2436 6.62917C16.2321 6.62917 16.2321 6.61774 16.2207 6.61774C16.1064 6.57203 15.9921 6.53774 15.8778 6.50346C15.7636 6.46917 15.6607 6.41203 15.5464 6.38917C15.535 6.38917 15.5236 6.38917 15.5236 6.38917C15.3864 6.34346 15.2493 6.3206 15.1121 6.29774C14.9978 6.28631 14.8721 6.25203 14.7578 6.2406C14.6321 6.2406 14.5064 6.2406 14.3693 6.2406C14.2436 6.2406 14.1178 6.2406 13.9921 6.2406C13.8664 6.25203 13.7521 6.28631 13.6264 6.29774C13.5007 6.3206 13.3636 6.34346 13.2378 6.36631C13.2264 6.36631 13.215 6.36631 13.215 6.36631C13.1007 6.4006 12.9978 6.44631 12.8836 6.4806C12.7693 6.51489 12.655 6.54917 12.5407 6.59489C12.5293 6.59489 12.5293 6.60631 12.5178 6.60631C12.3807 6.67489 12.2664 6.74346 12.1521 6.81203C12.0378 6.86917 11.935 6.91489 11.8321 6.98346C11.7293 7.05203 11.6264 7.13203 11.535 7.21203C11.4207 7.29203 11.3178 7.37203 11.2264 7.45203C11.135 7.53203 11.055 7.63489 10.975 7.71489C10.8836 7.81774 10.7807 7.90917 10.7007 8.01203C10.7007 8.02346 10.6893 8.03489 10.6778 8.03489C10.6093 8.13774 10.5521 8.2406 10.495 8.33203C10.4264 8.43489 10.3464 8.52631 10.2893 8.62917V8.6406C9.91214 9.32631 9.70642 10.092 9.70642 10.892V11.8406C9.69499 11.852 9.68356 11.8635 9.67214 11.8635C9.42071 11.9777 9.19214 12.1263 8.98642 12.2977C8.92928 12.332 8.88356 12.3777 8.82642 12.4235C8.78071 12.4577 8.72356 12.492 8.68928 12.5377C8.52928 12.6977 8.38071 12.8806 8.26642 13.0635C8.26642 13.0635 8.26642 13.0635 8.26642 13.0749C8.15214 13.2349 8.06071 13.3949 7.99214 13.5663C7.96928 13.6235 7.94642 13.6806 7.92356 13.7263C7.87785 13.8635 7.83214 14.0006 7.79785 14.1377C7.78642 14.1949 7.77499 14.252 7.76356 14.3092C7.72928 14.5035 7.70642 14.6977 7.70642 14.892V18.892C7.70642 19.772 8.06071 20.6177 8.68928 21.2463C9.15785 21.7149 9.75214 22.0349 10.3921 22.1606C10.6093 22.2063 10.8264 22.2292 11.0436 22.2292H17.7064C18.1521 22.2292 18.5864 22.1377 18.9864 21.9777C19.3864 21.8063 19.7521 21.5663 20.0721 21.2577C20.2321 21.0977 20.3693 20.9263 20.4836 20.7549C20.7236 20.3892 20.895 19.9892 20.975 19.5549C21.0207 19.3377 21.0436 19.1206 21.0436 18.9035V14.9035C21.0436 14.6977 21.0207 14.5035 20.9864 14.3092ZM11.0436 10.892C11.0436 10.2406 11.2493 9.61203 11.6036 9.06346C11.6493 8.98346 11.695 8.90346 11.7521 8.83489C11.8093 8.75489 11.8778 8.68631 11.9464 8.61774C12.0036 8.5606 12.0607 8.49203 12.1178 8.43489C12.1864 8.36631 12.2664 8.3206 12.335 8.26346C12.4036 8.20631 12.4721 8.14917 12.5521 8.10346C12.6207 8.05774 12.7121 8.02346 12.7807 7.97774C12.8721 7.93203 12.9521 7.88631 13.0436 7.8406C13.1236 7.80631 13.215 7.78346 13.3064 7.74917C13.3864 7.72632 13.4664 7.69203 13.5578 7.66917C13.6493 7.64631 13.7521 7.63489 13.8436 7.61203C13.9236 7.6006 14.015 7.57774 14.095 7.56631C14.1864 7.55489 14.2778 7.56631 14.3693 7.56631C14.4607 7.56631 14.5521 7.55489 14.6436 7.56631C14.735 7.57774 14.815 7.6006 14.9064 7.61203C14.9978 7.62346 15.1007 7.63489 15.1921 7.65774C15.2721 7.69203 15.3636 7.72632 15.4436 7.74917C15.535 7.78346 15.6264 7.80631 15.7064 7.8406C15.7978 7.87489 15.8778 7.93203 15.9578 7.97774C16.0378 8.02346 16.1179 8.05774 16.1864 8.10346C16.2664 8.14917 16.335 8.21774 16.4036 8.26346C16.4836 8.3206 16.5521 8.37774 16.6207 8.43489C16.6893 8.49203 16.735 8.5606 16.7921 8.61774C16.8607 8.68631 16.9293 8.75489 16.9864 8.83489C17.0436 8.90346 17.0893 8.98346 17.135 9.06346C17.4893 9.6006 17.695 10.2406 17.695 10.892V11.5549H11.0436V10.892ZM19.7064 18.892C19.7064 19.0292 19.695 19.1549 19.6721 19.2806C19.5921 19.6692 19.4093 20.0235 19.1236 20.2977C18.7464 20.6749 18.2436 20.8806 17.7064 20.8806H11.0436C10.9064 20.8806 10.7807 20.8692 10.655 20.8463C10.2664 20.7663 9.91214 20.5835 9.63785 20.2977C9.36356 20.012 9.16928 19.6577 9.08928 19.2806C9.06642 19.1549 9.05499 19.0177 9.05499 18.892V14.892C9.05499 14.7549 9.06642 14.6292 9.08928 14.5035C9.16928 14.1149 9.35214 13.7606 9.63785 13.4863C9.92356 13.212 10.2778 13.0177 10.655 12.9377C10.7807 12.9149 10.9064 12.892 11.0436 12.892H17.7064C18.2321 12.892 18.7464 13.0977 19.1236 13.4749C19.4093 13.7606 19.5921 14.1149 19.6721 14.492C19.695 14.6177 19.7064 14.7549 19.7064 14.8806V18.892Z" fill="white"/>
</g>
<path d="M14.375 15.5681C14.1982 15.5681 14.0287 15.6384 13.9036 15.7634C13.7786 15.8884 13.7084 16.058 13.7084 16.2348V17.5681C13.7084 17.7449 13.7786 17.9145 13.9036 18.0395C14.0287 18.1645 14.1982 18.2348 14.375 18.2348C14.5519 18.2348 14.7214 18.1645 14.8464 18.0395C14.9715 17.9145 15.0417 17.7449 15.0417 17.5681V16.2348C15.0417 16.058 14.9715 15.8884 14.8464 15.7634C14.7214 15.6384 14.5519 15.5681 14.375 15.5681Z" fill="white"/>
</g>
<defs>
<clipPath id="clip0_3227_4009">
<rect width="16" height="16" fill="white" transform="translate(6.375 6.23486)"/>
</clipPath>
<clipPath id="clip1_3227_4009">
<rect width="13.3371" height="15.9886" fill="white" transform="translate(7.70642 6.2406)"/>
</clipPath>
</defs>
</svg>
